<svg width="19" height="20" viewBox="0 0 19 20" fill="none" xmlns="http://www.w3.org/2000/svg">
<path d="M9.49121 -0.00109863C7.28221 -0.00109863 5.49121 1.7899 5.49121 3.9989C4.00721 3.9989 1.61621 3.9989 1.49121 3.9989C0.939211 3.9989 0.491211 4.4469 0.491211 4.9989V15.9989C0.491211 18.2079 2.28221 19.9989 4.49121 19.9989H14.4912C16.7002 19.9989 18.4912 18.2079 18.4912 15.9989V4.9989C18.4912 4.4469 18.0432 3.9989 17.4912 3.9989C17.3662 3.9989 14.9752 3.9989 13.4912 3.9989C13.4912 1.7899 11.7002 -0.00109863 9.49121 -0.00109863ZM9.49121 1.9989C10.5962 1.9989 11.4912 2.8939 11.4912 3.9989C9.66721 3.9989 9.31521 3.9989 7.49121 3.9989C7.49121 2.8939 8.38621 1.9989 9.49121 1.9989ZM2.49121 5.9989C3.04121 5.9989 4.98221 5.9989 6.49121 5.9989C8.75521 5.9989 10.2272 5.9989 12.4912 5.9989C14.0002 5.9989 15.9412 5.9989 16.4912 5.9989V15.9989C16.4912 17.1039 15.5962 17.9989 14.4912 17.9989H4.49121C3.38621 17.9989 2.49121 17.1039 2.49121 15.9989V5.9989ZM13.4912 8.9989C13.2352 8.9989 12.9682 9.08491 12.7722 9.27991L9.49121 12.5609L8.21021 11.2799C7.81921 10.8899 7.16322 10.8899 6.77222 11.2799C6.38222 11.6709 6.38222 12.3269 6.77222 12.7179L8.77222 14.7179C9.16322 15.1079 9.81921 15.1079 10.2102 14.7179L14.2102 10.7179C14.6002 10.3269 14.6002 9.67091 14.2102 9.27991C14.0142 9.08491 13.7472 8.9989 13.4912 8.9989Z" fill="#8FA2B7"/>
</svg>
