<svg width="24" height="24" viewBox="0 0 24 24" fill="none" xmlns="http://www.w3.org/2000/svg">
<path d="M3.01367 5.00488C2.46167 5.00488 2.01367 5.45288 2.01367 6.00488C2.01367 6.55688 2.46167 7.00488 3.01367 7.00488H21.0137C21.5657 7.00488 22.0137 6.55688 22.0137 6.00488C22.0137 5.45288 21.5657 5.00488 21.0137 5.00488H3.01367ZM13.0137 9.00488C12.4617 9.00488 12.0137 9.45288 12.0137 10.0049C12.0137 10.5569 12.4617 11.0049 13.0137 11.0049H21.0137C21.5657 11.0049 22.0137 10.5569 22.0137 10.0049C22.0137 9.45288 21.5657 9.00488 21.0137 9.00488H13.0137ZM5.16968 9.09888C3.82268 10.1339 3.01367 11.7419 3.01367 13.4739C3.01367 13.4839 3.01367 13.4949 3.01367 13.5049C3.01367 14.3339 3.68467 15.0049 4.51367 15.0049C5.34267 15.0049 6.01367 14.3339 6.01367 13.5049C6.01367 12.6759 5.34267 12.0049 4.51367 12.0049C4.44267 12.0049 4.33267 11.9959 4.26367 12.0049C4.54367 11.1559 5.04767 10.4299 5.76367 9.87988C5.98267 9.71188 6.02567 9.41187 5.85767 9.19287C5.68867 8.97287 5.38868 8.92988 5.16968 9.09888ZM9.16968 9.09888C7.82268 10.1339 7.01367 11.7419 7.01367 13.4739C7.01367 13.4839 7.01367 13.4949 7.01367 13.5049C7.01367 14.3339 7.68467 15.0049 8.51367 15.0049C9.34267 15.0049 10.0137 14.3339 10.0137 13.5049C10.0137 12.6759 9.34267 12.0049 8.51367 12.0049C8.44267 12.0049 8.33267 12.0269 8.26367 12.0359C8.54367 11.1869 9.04767 10.4299 9.76367 9.87988C9.98267 9.71188 10.0257 9.41187 9.85767 9.19287C9.68867 8.97287 9.38868 8.92988 9.16968 9.09888ZM13.0137 13.0049C12.4617 13.0049 12.0137 13.4529 12.0137 14.0049C12.0137 14.5569 12.4617 15.0049 13.0137 15.0049H21.0137C21.5657 15.0049 22.0137 14.5569 22.0137 14.0049C22.0137 13.4529 21.5657 13.0049 21.0137 13.0049H13.0137ZM3.01367 17.0049C2.46167 17.0049 2.01367 17.4529 2.01367 18.0049C2.01367 18.5569 2.46167 19.0049 3.01367 19.0049H21.0137C21.5657 19.0049 22.0137 18.5569 22.0137 18.0049C22.0137 17.4529 21.5657 17.0049 21.0137 17.0049H3.01367Z" fill="#8FA2B7"/>
</svg>
