<svg width="17" height="17" viewBox="0 0 17 17" fill="none" xmlns="http://www.w3.org/2000/svg">
<g clip-path="url(#clip0_9_3006)">
<path d="M8.50111 15.3008C6.69936 15.2978 4.97226 14.5807 3.69822 13.3067C2.42419 12.0326 1.70712 10.3055 1.70413 8.50377C1.70712 6.70202 2.42419 4.97493 3.69822 3.7009C4.97226 2.42686 6.69936 1.70979 8.50111 1.7068C10.3029 1.70979 12.03 2.42686 13.304 3.7009C14.578 4.97493 15.2951 6.70202 15.2981 8.50377C15.2951 10.3055 14.578 12.0326 13.304 13.3067C12.03 14.5807 10.3029 15.2978 8.50111 15.3008ZM8.50111 0.00755093C6.24884 0.0110463 4.08983 0.907306 2.49723 2.4999C0.904638 4.09249 0.00837819 6.25151 0.00488281 8.50377C0.00788005 10.7562 0.903977 12.9155 2.49668 14.5082C4.08938 16.1009 6.24869 16.997 8.50111 17C10.7534 16.9965 12.9124 16.1002 14.505 14.5077C16.0976 12.9151 16.9938 10.756 16.9973 8.50377C16.9953 6.25035 16.0998 4.08969 14.5071 2.49557C12.9144 0.901452 10.7545 0.00399809 8.50111 0V0.00755093Z" fill="#8FA2B7"/>
<path d="M9.33646 8.25402C9.34376 8.2103 9.34817 8.16615 9.34967 8.12185V4.4175C9.34967 4.19216 9.26016 3.97606 9.10083 3.81672C8.94149 3.65739 8.72539 3.56787 8.50005 3.56787C8.38841 3.56762 8.27782 3.58943 8.17462 3.63204C8.07143 3.67465 7.97767 3.73722 7.89872 3.81617C7.81978 3.89511 7.75721 3.98887 7.7146 4.09207C7.67199 4.19526 7.65018 4.30585 7.65043 4.4175V8.12185C7.65043 8.1936 7.64099 9.01679 7.9072 9.25468L10.5373 11.611C10.6927 11.7509 10.8945 11.8282 11.1037 11.8281C11.2231 11.8283 11.3413 11.8032 11.4503 11.7544C11.5594 11.7056 11.6568 11.6342 11.7362 11.5449C11.8108 11.462 11.8684 11.3652 11.9056 11.2601C11.9428 11.1549 11.9589 11.0435 11.9529 10.9321C11.9469 10.8207 11.919 10.7116 11.8708 10.6111C11.8226 10.5105 11.7551 10.4204 11.672 10.346L9.33646 8.25402Z" fill="#8FA2B7"/>
</g>
<defs>
<clipPath id="clip0_9_3006">
<rect width="17" height="17" fill="white"/>
</clipPath>
</defs>
</svg>
