<svg width="15" height="15" viewBox="0 0 15 15" fill="none" xmlns="http://www.w3.org/2000/svg">
<path d="M14.5966 12.1993L9.8905 7.49991L14.5908 2.79475C14.7198 2.6672 14.8223 2.51531 14.8922 2.34789C14.9621 2.18048 14.9981 2.00086 14.9981 1.81943C14.9981 1.63801 14.9621 1.45839 14.8922 1.29097C14.8223 1.12356 14.7198 0.971666 14.5908 0.844113L14.1556 0.406169C14.0282 0.276637 13.8761 0.173942 13.7083 0.104165C13.5405 0.0343871 13.3604 -0.00106802 13.1787 -0.000102883V-0.000102883C12.9974 -0.00100807 12.8178 0.0344849 12.6504 0.10427C12.4831 0.174055 12.3315 0.276722 12.2046 0.406169L7.50145 5.1113L2.7954 0.41192C2.66787 0.283337 2.51614 0.181288 2.34896 0.111639C2.18178 0.0419891 2.00246 0.00612256 1.82134 0.00612256C1.64022 0.00612256 1.4609 0.0419891 1.29372 0.111639C1.12653 0.181288 0.974802 0.283337 0.847275 0.41192L0.409235 0.844113C0.27894 0.971724 0.175585 1.12418 0.105293 1.29245C0.0350003 1.46072 -0.000799273 1.6414 1.35364e-05 1.82376C1.01746e-05 2.00531 0.0359079 2.18506 0.105643 2.35269C0.175379 2.52032 0.277575 2.67252 0.406354 2.80052L5.1124 7.49991L0.409235 12.2022C0.280452 12.3302 0.178251 12.4824 0.108511 12.65C0.0387717 12.8176 0.00286961 12.9974 0.00286961 13.1789C0.00286961 13.3605 0.0387717 13.5402 0.108511 13.7079C0.178251 13.8755 0.280452 14.0277 0.409235 14.1557L0.844393 14.5879C0.972564 14.7172 1.12521 14.8198 1.29344 14.8895C1.46167 14.9593 1.6421 14.9948 1.82422 14.9941C2.19085 14.9935 2.54223 14.8474 2.80117 14.5879L7.50145 9.88272L12.2046 14.5879C12.3324 14.717 12.4845 14.8194 12.6522 14.8892C12.82 14.9589 12.9999 14.9946 13.1816 14.9941C13.5478 14.9943 13.8991 14.8492 14.1585 14.5908L14.5937 14.1557C14.7241 14.0288 14.8276 13.8769 14.898 13.709C14.9683 13.5412 15.004 13.3609 15.0029 13.1789C15.0035 12.8118 14.8584 12.4595 14.5994 12.1993H14.5966Z" fill="#011B21"/>
</svg>
