<svg width="19" height="19" viewBox="0 0 19 19" fill="none" xmlns="http://www.w3.org/2000/svg">
<path d="M9.99121 -0.00109862C9.43921 -0.00109862 8.99121 0.446602 8.99121 0.998902V10.9989H5.99121L9.99121 14.9989L13.9912 10.9989H10.9912V0.998902C10.9912 0.446602 10.5432 -0.00119862 9.99121 -0.00109862ZM1.99121 11.9989C1.43891 11.9989 0.991211 12.4469 0.991211 12.9989V14.9989C0.991211 17.2079 2.78211 18.9989 4.99121 18.9989H14.9912C17.2002 18.9989 18.9912 17.2079 18.9912 14.9989V12.9989C18.9912 12.4469 18.5432 11.9989 17.9912 11.9989C17.4392 11.9989 16.9912 12.4469 16.9912 12.9989V14.9989C16.9912 16.1039 16.0962 16.9989 14.9912 16.9989H4.99121C3.88661 16.9989 2.99121 16.1039 2.99121 14.9989V12.9989C2.99121 12.4469 2.54351 11.9989 1.99121 11.9989Z" fill="#8FA2B7"/>
</svg>
