<svg width="18" height="19" viewBox="0 0 18 19" fill="none" xmlns="http://www.w3.org/2000/svg">
<path d="M17.7825 8.50803L9.57636 0.235801C9.42116 0.0876863 9.21556 0.00512695 9.00185 0.00512695C8.78813 0.00512695 8.58253 0.0876863 8.42733 0.235801L0.221207 8.50803C0.121051 8.62433 0.0544411 8.76609 0.0286208 8.91789C0.00280049 9.06968 0.0187623 9.22571 0.0747605 9.369C0.130759 9.5123 0.224651 9.63737 0.346237 9.73063C0.467824 9.82389 0.612449 9.88177 0.764383 9.89796H1.76299V18.1702C1.76299 18.3936 1.85103 18.6079 2.00775 18.7658C2.16446 18.9238 2.37702 19.0126 2.59864 19.0126H7.19475V13.4486C7.19475 13.2252 7.28279 13.0109 7.43951 12.8529C7.59622 12.695 7.80878 12.6062 8.03041 12.6062H10.0151C10.2367 12.6062 10.4493 12.695 10.606 12.8529C10.7627 13.0109 10.8507 13.2252 10.8507 13.4486V18.9747H15.4468C15.6685 18.9747 15.881 18.8859 16.0377 18.7279C16.1944 18.5699 16.2825 18.3557 16.2825 18.1323V9.88953H17.3271C17.475 9.86775 17.6144 9.80637 17.7308 9.71179C17.8472 9.6172 17.9362 9.49288 17.9887 9.35178C18.0412 9.21067 18.0552 9.05794 18.0292 8.90953C18.0032 8.76113 17.9382 8.62249 17.841 8.50803H17.7825Z" fill="currentColor"/>
</svg>
