<svg width="24" height="24" viewBox="0 0 24 24" fill="none" xmlns="http://www.w3.org/2000/svg">
<path d="M11.998 1.95312C9.23705 1.95312 6.99805 4.19213 6.99805 6.95312V8.95312C5.34105 8.95312 3.99805 10.2961 3.99805 11.9531V18.9531C3.99805 20.6101 5.34105 21.9531 6.99805 21.9531H16.998C18.655 21.9531 19.998 20.6101 19.998 18.9531V11.9531C19.998 10.2961 18.655 8.95312 16.998 8.95312V6.95312C16.998 4.19213 14.759 1.95312 11.998 1.95312ZM11.998 3.95312C13.655 3.95312 14.998 5.29612 14.998 6.95312V8.95312H8.99805V6.95312C8.99805 5.29612 10.341 3.95312 11.998 3.95312ZM11.998 11.9531C13.103 11.9531 13.998 12.8481 13.998 13.9531C13.998 14.6631 13.555 15.1611 12.998 15.5151V17.9531C12.998 18.5051 12.55 18.9531 11.998 18.9531C11.446 18.9531 10.998 18.5051 10.998 17.9531V15.5151C10.441 15.1601 9.99805 14.6631 9.99805 13.9531C9.99805 12.8481 10.893 11.9531 11.998 11.9531Z" fill="#8FA2B7"/>
</svg>
