<svg width="21" height="17" viewBox="0 0 21 17" fill="none" xmlns="http://www.w3.org/2000/svg">
<path d="M2.5 0C3.88 0 5 1.27973 5 2.31835V14.6816C5 15.2965 4.73661 15.8862 4.26777 16.321C3.79893 16.7558 3.16304 17 2.5 17C1.116 17 0 15.7203 0 14.6816V2.31835C0 1.70349 0.263392 1.1138 0.732233 0.679024C1.20107 0.244248 1.83696 0 2.5 0Z" fill="currentColor"/>
<path d="M10.5 3C11.88 3 13 4.29173 13 5.33333V14.6667C13 14.9731 12.9353 15.2765 12.8097 15.5596C12.6841 15.8427 12.4999 16.0999 12.2678 16.3166C12.0356 16.5333 11.76 16.7051 11.4567 16.8224C11.1534 16.9397 10.8283 17 10.5 17C9.12 17 8 15.712 8 14.6667V5.33333C8 4.71449 8.26339 4.12102 8.73223 3.68343C9.20107 3.24585 9.83696 3 10.5 3Z" fill="currentColor"/>
<path d="M18.5 6C19.88 6 21 7.30144 21 8.35768V14.6423C21 15.2676 20.7366 15.8673 20.2678 16.3095C19.7989 16.7516 19.163 17 18.5 17C17.12 17 16 15.6986 16 14.6423V8.35391C16.0011 7.72927 16.2649 7.13054 16.7336 6.68921C17.2024 6.24787 17.8377 6 18.5 6Z" fill="currentColor"/>
</svg>
