<svg width="22" height="20" viewBox="0 0 22 20" fill="none" xmlns="http://www.w3.org/2000/svg">
<path d="M21.7708 17.7528H2.0625V0.224719C2.0625 0.101124 1.95938 0 1.83333 0H0.229167C0.103125 0 0 0.101124 0 0.224719V19.5506C0 19.6742 0.103125 19.7753 0.229167 19.7753H21.7708C21.8969 19.7753 22 19.6742 22 19.5506V17.9775C22 17.8539 21.8969 17.7528 21.7708 17.7528ZM5.09323 13.4185C5.18203 13.5056 5.32526 13.5056 5.41693 13.4185L9.37864 9.55337L13.0339 13.1601C13.1227 13.2472 13.2687 13.2472 13.3576 13.1601L21.2466 5.42697C21.3354 5.33989 21.3354 5.19663 21.2466 5.10955L20.1122 3.99719C20.0692 3.95537 20.011 3.93191 19.9504 3.93191C19.8898 3.93191 19.8316 3.95537 19.7885 3.99719L13.2 10.4551L9.55052 6.85393C9.50745 6.81211 9.44929 6.78865 9.38867 6.78865C9.32806 6.78865 9.26989 6.81211 9.22682 6.85393L3.96172 11.986C3.91907 12.0282 3.89515 12.0852 3.89515 12.1447C3.89515 12.2041 3.91907 12.2611 3.96172 12.3034L5.09323 13.4185Z" fill="#3755F0"/>
</svg>
