<svg width="24" height="24" viewBox="0 0 24 24" fill="none" xmlns="http://www.w3.org/2000/svg">
<path d="M3.039 7.91491H19C19.5304 7.91491 20.0391 8.12562 20.4142 8.5007C20.7893 8.87577 21 9.38448 21 9.91491V18.9999C21 20.0999 20.1 20.9999 19 20.9999H5C4.46957 20.9999 3.96086 20.7892 3.58579 20.4141C3.21071 20.0391 3 19.5303 3 18.9999V8.29091C3.00005 7.88451 3.12391 7.48776 3.35508 7.15351C3.58625 6.81926 3.91376 6.56337 4.294 6.41991L14.647 2.51091C14.7983 2.45383 14.9612 2.43429 15.1217 2.45396C15.2822 2.47363 15.4355 2.53193 15.5685 2.62386C15.7015 2.71579 15.8103 2.8386 15.8854 2.98178C15.9606 3.12495 15.9999 3.28421 16 3.44591V7.91391" stroke="#3755F0" stroke-width="1.5" stroke-linecap="round" stroke-linejoin="round"/>
<path d="M15.999 14.125C15.9043 14.132 15.8158 14.1747 15.7512 14.2443C15.6866 14.314 15.6508 14.4055 15.6509 14.5005C15.651 14.5954 15.6871 14.6869 15.7519 14.7563C15.8166 14.8258 15.9053 14.8682 16 14.875C16.0995 14.8749 16.1948 14.8352 16.265 14.7648C16.3353 14.6944 16.3746 14.599 16.3745 14.4995C16.3744 14.4 16.3347 14.3047 16.2643 14.2345C16.1939 14.1642 16.0985 14.1249 15.999 14.125" stroke="#3755F0" stroke-width="1.5" stroke-linecap="round" stroke-linejoin="round"/>
</svg>
