<svg width="24" height="24" viewBox="0 0 24 24" fill="none" xmlns="http://www.w3.org/2000/svg">
<path d="M3.039 7.91503H19C19.5304 7.91503 20.0391 8.12575 20.4142 8.50082C20.7893 8.87589 21 9.3846 21 9.91503V19C21 20.1 20.1 21 19 21H5C4.46957 21 3.96086 20.7893 3.58579 20.4142C3.21071 20.0392 3 19.5305 3 19V8.29103C3.00005 7.88463 3.12391 7.48789 3.35508 7.15364C3.58625 6.81939 3.91376 6.56349 4.294 6.42003L14.647 2.51103C14.7983 2.45395 14.9612 2.43441 15.1217 2.45408C15.2822 2.47376 15.4355 2.53205 15.5685 2.62398C15.7015 2.71591 15.8103 2.83872 15.8854 2.9819C15.9606 3.12507 15.9999 3.28433 16 3.44603V7.91403" stroke="#013BFF" stroke-opacity="0.5" stroke-width="1.5" stroke-linecap="round" stroke-linejoin="round"/>
<path d="M15.999 14.125C15.9043 14.132 15.8157 14.1747 15.7511 14.2443C15.6866 14.314 15.6508 14.4055 15.6509 14.5005C15.651 14.5954 15.6871 14.6869 15.7518 14.7563C15.8166 14.8258 15.9052 14.8682 16 14.875C16.0994 14.8749 16.1948 14.8352 16.265 14.7648C16.3352 14.6944 16.3746 14.599 16.3745 14.4995C16.3743 14.4 16.3347 14.3047 16.2643 14.2345C16.1939 14.1642 16.0984 14.1249 15.999 14.125" stroke="#013BFF" stroke-opacity="0.5" stroke-width="1.5" stroke-linecap="round" stroke-linejoin="round"/>
</svg>
