<svg width="48" height="48" viewBox="0 0 48 48" fill="none" xmlns="http://www.w3.org/2000/svg">
<rect width="48" height="48" rx="8" fill="#013BFF"/>
<path fill-rule="evenodd" clip-rule="evenodd" d="M21.8775 27.2065C18.0335 27.2065 14.7505 27.7875 14.7505 30.1155C14.7505 32.4425 18.0125 33.0455 21.8775 33.0455C25.7215 33.0455 29.0045 32.4635 29.0045 30.1365C29.0045 27.8095 25.7425 27.2065 21.8775 27.2065Z" stroke="white" stroke-width="1.5" stroke-linecap="round" stroke-linejoin="round"/>
<path fill-rule="evenodd" clip-rule="evenodd" d="M21.8776 23.886C24.4136 23.886 26.4456 21.853 26.4456 19.318C26.4456 16.782 24.4136 14.75 21.8776 14.75C19.3426 14.75 17.3096 16.782 17.3096 19.318C17.3096 21.853 19.3426 23.886 21.8776 23.886Z" stroke="white" stroke-width="1.5" stroke-linecap="round" stroke-linejoin="round"/>
<path d="M31.2041 20.6694V24.6794" stroke="white" stroke-width="1.5" stroke-linecap="round" stroke-linejoin="round"/>
<path d="M33.2502 22.6743H29.1602" stroke="white" stroke-width="1.5" stroke-linecap="round" stroke-linejoin="round"/>
</svg>
