<svg width="48" height="48" viewBox="0 0 48 48" fill="none" xmlns="http://www.w3.org/2000/svg">
<rect width="48" height="48" rx="8" fill="#013BFF"/>
<path fill-rule="evenodd" clip-rule="evenodd" d="M30.865 17.1238C31.302 17.2768 31.594 17.6888 31.594 18.1518V24.9248C31.594 26.8178 30.906 28.6248 29.691 30.0248C29.08 30.7298 28.307 31.2788 27.486 31.7228L23.928 33.6448L20.364 31.7218C19.542 31.2778 18.768 30.7298 18.156 30.0238C16.94 28.6238 16.25 26.8158 16.25 24.9208V18.1518C16.25 17.6888 16.542 17.2768 16.979 17.1238L23.561 14.8108C23.795 14.7288 24.05 14.7288 24.283 14.8108L30.865 17.1238Z" stroke="white" stroke-width="1.5" stroke-linecap="round" stroke-linejoin="round"/>
<path d="M21.3223 23.9176L23.2143 25.8106L27.1123 21.9126" stroke="white" stroke-width="1.5" stroke-linecap="round" stroke-linejoin="round"/>
</svg>
