<svg width="16" height="17" viewBox="0 0 16 17" fill="none" xmlns="http://www.w3.org/2000/svg">
<path d="M3.99881 11.9004H4.99251C5.12791 11.8948 5.26325 11.9126 5.39032 11.9527C5.51739 11.9929 5.63353 12.0545 5.73171 12.134C5.82989 12.2134 5.90805 12.309 5.96146 12.4149C6.01487 12.5208 6.04241 12.6348 6.04241 12.75C6.04241 12.8652 6.01487 12.9792 5.96146 13.0851C5.90805 13.191 5.82989 13.2866 5.73171 13.366C5.63353 13.4455 5.51739 13.5071 5.39032 13.5473C5.26325 13.5874 5.12791 13.6052 4.99251 13.5996H3.9916C3.73494 13.5889 3.49295 13.4947 3.31575 13.3366C3.13854 13.1784 3.03971 12.9684 3.03971 12.75C3.03971 12.5316 3.13854 12.3216 3.31575 12.1634C3.49295 12.0053 3.73494 11.9111 3.9916 11.9004H3.99881ZM3.99881 7.64939H4.99251C5.25796 7.64939 5.51255 7.73901 5.70025 7.89853C5.88796 8.05805 5.99341 8.2744 5.99341 8.49999C5.99341 8.72559 5.88796 8.94195 5.70025 9.10147C5.51255 9.26099 5.25796 9.35061 4.99251 9.35061H3.9916C3.72615 9.35061 3.47157 9.26099 3.28387 9.10147C3.09616 8.94195 2.99071 8.72559 2.99071 8.49999C2.99071 8.2744 3.09616 8.05805 3.28387 7.89853C3.47157 7.73901 3.72615 7.64939 3.9916 7.64939H3.99881ZM3.99881 3.4004H4.99251C5.12791 3.39476 5.26325 3.41257 5.39032 3.45272C5.51739 3.49287 5.63353 3.55453 5.73171 3.63398C5.82989 3.71343 5.90805 3.809 5.96146 3.91489C6.01487 4.02079 6.04241 4.13479 6.04241 4.25C6.04241 4.36521 6.01487 4.47922 5.96146 4.58511C5.90805 4.691 5.82989 4.78658 5.73171 4.86603C5.63353 4.94547 5.51739 5.00714 5.39032 5.04729C5.26325 5.08744 5.12791 5.10523 4.99251 5.09959H3.9916C3.73494 5.0889 3.49295 4.99473 3.31575 4.83657C3.13854 4.67841 3.03971 4.46839 3.03971 4.25C3.03971 4.03162 3.13854 3.8216 3.31575 3.66344C3.49295 3.50528 3.73494 3.41109 3.9916 3.4004H3.99881ZM8.00001 11.9004H12.0012C12.2579 11.9111 12.4999 12.0053 12.6771 12.1634C12.8543 12.3216 12.9531 12.5316 12.9531 12.75C12.9531 12.9684 12.8543 13.1784 12.6771 13.3366C12.4999 13.4947 12.2579 13.5889 12.0012 13.5996H8.00001C7.86461 13.6052 7.72927 13.5874 7.6022 13.5473C7.47513 13.5071 7.35898 13.4455 7.2608 13.366C7.16263 13.2866 7.08447 13.191 7.03106 13.0851C6.97765 12.9792 6.95011 12.8652 6.95011 12.75C6.95011 12.6348 6.97765 12.5208 7.03106 12.4149C7.08447 12.309 7.16263 12.2134 7.2608 12.134C7.35898 12.0545 7.47513 11.9929 7.6022 11.9527C7.72927 11.9126 7.86461 11.8948 8.00001 11.9004ZM8.00001 7.64939H12.0012C12.2667 7.64939 12.5212 7.73901 12.7089 7.89853C12.8967 8.05805 13.0021 8.2744 13.0021 8.49999C13.0021 8.72559 12.8967 8.94195 12.7089 9.10147C12.5212 9.26099 12.2667 9.35061 12.0012 9.35061H8.00001C7.73455 9.35061 7.47997 9.26099 7.29226 9.10147C7.10456 8.94195 6.99911 8.72559 6.99911 8.49999C6.99911 8.2744 7.10456 8.05805 7.29226 7.89853C7.47997 7.73901 7.73455 7.64939 8.00001 7.64939ZM8.00001 3.4004H12.0012C12.2579 3.41109 12.4999 3.50528 12.6771 3.66344C12.8543 3.8216 12.9531 4.03162 12.9531 4.25C12.9531 4.46839 12.8543 4.67841 12.6771 4.83657C12.4999 4.99473 12.2579 5.0889 12.0012 5.09959H8.00001C7.86461 5.10523 7.72927 5.08744 7.6022 5.04729C7.47513 5.00714 7.35898 4.94547 7.2608 4.86603C7.16263 4.78658 7.08447 4.691 7.03106 4.58511C6.97765 4.47922 6.95011 4.36521 6.95011 4.25C6.95011 4.13479 6.97765 4.02079 7.03106 3.91489C7.08447 3.809 7.16263 3.71343 7.2608 3.63398C7.35898 3.55453 7.47513 3.49287 7.6022 3.45272C7.72927 3.41257 7.86461 3.39476 8.00001 3.4004ZM0.998505 17H15.0015C15.2666 16.9995 15.5205 16.9096 15.7077 16.7501C15.8949 16.5907 16 16.3746 16 16.1494V0.850608C15.9994 0.62553 15.894 0.409794 15.707 0.250448C15.5199 0.0911016 15.2664 0.0010763 15.0015 0H0.998505C0.733466 0.000540152 0.4795 0.0904004 0.292314 0.249863C0.105127 0.409325 1.08227e-05 0.625365 1.15848e-05 0.850608V16.1494C-0.000622134 16.2611 0.0247496 16.3718 0.0746748 16.4751C0.1246 16.5784 0.198086 16.6723 0.2909 16.7513C0.383714 16.8304 0.494025 16.8931 0.615469 16.9358C0.736913 16.9784 0.867089 17.0003 0.998505 17Z" fill="currentColor"/>
</svg>
