<svg width="15" height="16" viewBox="0 0 15 16" fill="none" xmlns="http://www.w3.org/2000/svg">
<g clip-path="url(#clip0_9_8682)">
<path d="M3.56566 8.10165C3.67251 8.20802 3.80071 8.29264 3.94257 8.35044C4.08442 8.40825 4.23701 8.43804 4.39118 8.43804C4.54536 8.43804 4.69795 8.40825 4.8398 8.35044C4.98166 8.29264 5.10985 8.20802 5.21671 8.10165C5.43617 7.88896 5.55924 7.60208 5.55924 7.30316C5.55924 7.00424 5.43617 6.71736 5.21671 6.50467L4.00477 5.34477H13.8233C14.1354 5.34477 14.4347 5.22611 14.6554 5.01489C14.8761 4.80367 15.0001 4.51719 15.0001 4.21848C15.0001 3.91977 14.8761 3.6333 14.6554 3.42208C14.4347 3.21086 14.1354 3.0922 13.8233 3.0922H4.00477L5.21671 1.93229C5.43617 1.7196 5.55924 1.43272 5.55924 1.1338C5.55924 0.834886 5.43617 0.548005 5.21671 0.335317C5.10771 0.229498 4.97783 0.145468 4.8346 0.088114C4.69137 0.0307596 4.53766 0.0012207 4.3824 0.0012207C4.22714 0.0012207 4.07343 0.0307596 3.93021 0.088114C3.78698 0.145468 3.65709 0.229498 3.54809 0.335317L0.351372 3.4284C0.12954 3.63683 0.00319628 3.92098 8.39933e-05 4.21848C-0.00181286 4.36629 0.0284374 4.51286 0.0889137 4.64888C0.14939 4.7849 0.23877 4.90739 0.351372 5.00856L3.56566 8.10165Z" fill="currentColor"/>
<path d="M11.4345 7.8974C11.2122 7.68736 10.9125 7.56958 10.6002 7.56958C10.2878 7.56958 9.98808 7.68736 9.76585 7.8974C9.65529 8.00171 9.56749 8.12602 9.50756 8.2631C9.44763 8.40018 9.41677 8.54729 9.41677 8.69588C9.41677 8.84448 9.44763 8.99159 9.50756 9.12866C9.56749 9.26574 9.65529 9.39005 9.76585 9.49437L10.9778 10.6543H1.17686C1.01861 10.6484 0.860756 10.6732 0.712749 10.7271C0.564741 10.781 0.429628 10.863 0.315502 10.9681C0.201377 11.0732 0.110586 11.1992 0.0485708 11.3387C-0.0134445 11.4781 -0.0454102 11.6282 -0.0454102 11.7797C-0.0454102 11.9313 -0.0134445 12.0813 0.0485708 12.2208C0.110586 12.3602 0.201377 12.4863 0.315502 12.5914C0.429628 12.6965 0.564741 12.7784 0.712749 12.8323C0.860756 12.8863 1.01861 12.911 1.17686 12.9052H10.9954L9.78342 14.0651C9.56396 14.2778 9.4409 14.5646 9.4409 14.8636C9.4409 15.1625 9.56396 15.4494 9.78342 15.6621C9.89028 15.7684 10.0185 15.853 10.1603 15.9108C10.3022 15.9687 10.4548 15.9984 10.6089 15.9984C10.7631 15.9984 10.9157 15.9687 11.0576 15.9108C11.1994 15.853 11.3276 15.7684 11.4345 15.6621L14.6523 12.5774C14.8717 12.3647 14.9948 12.0778 14.9948 11.7789C14.9948 11.48 14.8717 11.1931 14.6523 10.9804L11.4345 7.8974Z" fill="currentColor"/>
</g>
<defs>
<clipPath id="clip0_9_8682">
<rect width="15" height="16" fill="currentColor"/>
</clipPath>
</defs>
</svg>
