<svg width="19" height="20" viewBox="0 0 19 20" fill="none" xmlns="http://www.w3.org/2000/svg">
<path d="M9.99121 0.953247L5.99121 4.95323H8.99121V14.9532C8.99121 15.5052 9.43921 15.9532 9.99121 15.9532C10.5432 15.9532 10.9912 15.5052 10.9912 14.9532V4.95323H13.9912L9.99121 0.953247ZM1.99121 12.9532C1.43921 12.9532 0.991211 13.4012 0.991211 13.9532V15.9532C0.991211 18.1622 2.78221 19.9532 4.99121 19.9532H14.9912C17.2002 19.9532 18.9912 18.1622 18.9912 15.9532V13.9532C18.9912 13.4012 18.5432 12.9532 17.9912 12.9532C17.4392 12.9532 16.9912 13.4012 16.9912 13.9532V15.9532C16.9912 17.0582 16.0962 17.9532 14.9912 17.9532H4.99121C3.88621 17.9532 2.99121 17.0582 2.99121 15.9532V13.9532C2.99121 13.4012 2.54321 12.9532 1.99121 12.9532Z" fill="#8FA2B7"/>
</svg>
