<svg width="20" height="16" viewBox="0 0 20 16" fill="none" xmlns="http://www.w3.org/2000/svg">
<g clip-path="url(#clip0_45_441)">
<path d="M19.6759 11.8049H17.2959C16.3131 11.8049 15.3706 11.4243 14.6753 10.7467C13.9801 10.0691 13.5889 9.14998 13.5879 8.19122V7.80097C13.5881 7.32616 13.6842 6.85605 13.8707 6.41749C14.0572 5.97892 14.3304 5.58048 14.6747 5.24492C15.0191 4.90936 15.4277 4.64325 15.8775 4.46179C16.3272 4.28032 16.8092 4.18706 17.2959 4.18732H19.6759C19.7439 4.1868 19.809 4.16005 19.857 4.11291C19.905 4.06576 19.9319 4.00203 19.9319 3.93561V2.59512C19.9319 1.22927 18.7439 0.0897542 17.2239 -0.00195312H2.90586C1.30586 -0.00195312 0.00585938 1.16878 0.00585938 2.60097V13.399C0.00585938 14.8312 1.30586 15.998 2.90586 15.998H17.0379C17.7984 16.0038 18.5329 15.7284 19.0939 15.2273C19.3575 14.996 19.5687 14.7136 19.714 14.3981C19.8593 14.0826 19.9356 13.741 19.9379 13.3951V12.0527C19.9381 12.0198 19.9317 11.9872 19.9189 11.9568C19.9061 11.9264 19.8873 11.8987 19.8635 11.8755C19.8396 11.8523 19.8113 11.8339 19.7801 11.8214C19.749 11.8089 19.7156 11.8027 19.6819 11.8029L19.6759 11.8049Z" fill="currentColor"/>
<path d="M17.6164 9.06529C17.4004 9.06529 17.1893 9.00281 17.0097 8.88574C16.8301 8.76868 16.6902 8.6023 16.6075 8.40763C16.5249 8.21296 16.5032 7.99874 16.5454 7.79208C16.5875 7.58542 16.6915 7.39559 16.8442 7.2466C16.997 7.09761 17.1915 6.99614 17.4034 6.95503C17.6152 6.91392 17.8348 6.93502 18.0343 7.01565C18.2338 7.09629 18.4044 7.23284 18.5244 7.40804C18.6443 7.58324 18.7084 7.78921 18.7084 7.99992C18.7087 8.1399 18.6806 8.27856 18.6258 8.40793C18.571 8.5373 18.4906 8.65484 18.3891 8.75382C18.2877 8.8528 18.1672 8.93127 18.0346 8.98472C17.902 9.03817 17.7599 9.06555 17.6164 9.06529ZM19.7084 5.17456H17.3084C16.5925 5.17508 15.906 5.45277 15.3998 5.94665C14.8936 6.44054 14.6089 7.11025 14.6084 7.80871V8.19895C14.6095 8.89725 14.8943 9.56666 15.4004 10.0604C15.9065 10.5542 16.5926 10.8321 17.3084 10.8331H19.7084C19.7858 10.8331 19.8601 10.8031 19.9149 10.7497C19.9696 10.6962 20.0004 10.6238 20.0004 10.5482V5.47504C20.0007 5.43738 19.9933 5.40003 19.9788 5.36513C19.9642 5.33023 19.9428 5.29847 19.9157 5.27166C19.8886 5.24484 19.8563 5.2235 19.8207 5.20885C19.7852 5.1942 19.747 5.18652 19.7084 5.18627V5.17456Z" fill="currentColor"/>
</g>
<defs>
<clipPath id="clip0_45_441">
<rect width="20" height="16" fill="currentColor"/>
</clipPath>
</defs>
</svg>
